PathFileType	4	(X/Y/Z)	P:\Projects\LMB_grand_challenge_database\project_only\opensim\experimental_data\SixthCompetition/DM_bouncy5_new.trc
DataRate	CameraRate	NumFrames	NumMarkers	Units	OrigDataRate	OrigDataStartFrame	OrigNumFrames
120	120	5	68	mm	120	256	342
Frame#	Time	Sternum			Neck			R_Shoulder			L_Shoulder			Xiphoid			Thoracic			R_Asis			L_Asis			R_Psis			L_Psis			Lumbar			R_Elbow			R_ElbowMedial			R_ShoulderAnterior			R_ShoulderPosterior			R_Wrist			R_Radius			R_Ulna			L_Elbow			L_ElbowMedial			L_ShoulderAnterior			L_ShoulderPosterior			L_Wrist			L_Ulna			L_Radius			L_Thigh_Superior			L_Thigh_Inferior			L_Thigh_Lateral			L_Knee_Lateral			L_Knee_Medial			L_Patella			L_Shank_Superior			L_Shank_Inferior			L_Shank_Lateral			L_Ankle_Lateral			L_Ankle_Medial			R_Thigh_Superior			R_Thigh_Inferior			R_Thigh_Lateral			R_Knee_Lateral			R_Knee_Medial			R_Patella			R_Shank_Superior			R_Shank_Inferior			R_Shank_Lateral			R_Ankle_Lateral			RankleMedial			R_Heel			R_Toe			R_Midfoot_Medial			R_Midfoot_Lateral			R_Hindfoot			R_Midfoot_Superior			R_ToeMedial			R_ToeLateral			L_Heel			L_Toe			L_Midfoot_Medial			L_Midfoot_Lateral			L_Hindfoot			L_Midfoot_Superior			L_ToeMedial			L_ToeLateral			Oglobal			Sacral			Xglobal			Yglobal			Zglobal			
		X1	Y1	Z1	X2	Y2	Z2	X3	Y3	Z3	X4	Y4	Z4	X5	Y5	Z5	X6	Y6	Z6	X7	Y7	Z7	X8	Y8	Z8	X9	Y9	Z9	X10	Y10	Z10	X11	Y11	Z11	X12	Y12	Z12	X13	Y13	Z13	X14	Y14	Z14	X15	Y15	Z15	X16	Y16	Z16	X17	Y17	Z17	X18	Y18	Z18	X19	Y19	Z19	X20	Y20	Z20	X21	Y21	Z21	X22	Y22	Z22	X23	Y23	Z23	X24	Y24	Z24	X25	Y25	Z25	X26	Y26	Z26	X27	Y27	Z27	X28	Y28	Z28	X29	Y29	Z29	X30	Y30	Z30	X31	Y31	Z31	X32	Y32	Z32	X33	Y33	Z33	X34	Y34	Z34	X35	Y35	Z35	X36	Y36	Z36	X37	Y37	Z37	X38	Y38	Z38	X39	Y39	Z39	X40	Y40	Z40	X41	Y41	Z41	X42	Y42	Z42	X43	Y43	Z43	X44	Y44	Z44	X45	Y45	Z45	X46	Y46	Z46	X47	Y47	Z47	X48	Y48	Z48	X49	Y49	Z49	X50	Y50	Z50	X51	Y51	Z51	X52	Y52	Z52	X53	Y53	Z53	X54	Y54	Z54	X55	Y55	Z55	X56	Y56	Z56	X57	Y57	Z57	X58	Y58	Z58	X59	Y59	Z59	X60	Y60	Z60	X61	Y61	Z61	X62	Y62	Z62	X63	Y63	Z63	X64	Y64	Z64	X65	Y65	Z65	X66	Y66	Z66	X67	Y67	Z67	X68	Y68	Z68	

257	2.991667	1274.76	1358.36	211.315	1120.17	1446.76	215.558	1220.88	1384.7	384.091	1201.26	1402.19	41.5571	1280.39	1190.36	210.358	1018.03	1270.33	203.807	1173.4	958.4059999999999	335.1	1195.14	977.404	60.7011	981.12	1022.91	217.176	985.473	1021.81	137.211	990.256	1070.89	183.762	1154.65	1069.26	466.446	-0	0	0	-0	0	0	-0	0	0	1210.76	798.15	444.089	1224.14	809.912	403.977	1164.99	798.644	440.721	1312.43	1092.3	-48.6858	-0	0	0	-0	0	0	-0	0	0	1511.96	921.431	10.8812	1475.5	905.058	-17.6896	1486.68	930.321	51.6065	1111.8	798.771	32.2284	1114.03	577.58	88.8078	1169.6	665.002	111.999	-0	0	0	-0	0	0	1127.78	480.489	153.647	1046.53	430.898	80.5869	925.116	188.212	79.5217	1008.31	292.216	153.407	-0	0	0	-0	0	0	1120.58	793.9109999999999	367.795	1223.64	601.1369999999999	338.206	1233.76	742.667	355.148	-0	0	0	-0	0	0	1338.97	544.898	283.995	1238.56	410.319	355.263	1287.5	206.225	351.947	1332.03	342.179	286.636	-0	0	0	-0	0	0	1249.47	57.969	294.57	1539.8	119.57	331.283	1476.5	83.4323	269.498	1453.85	70.75830000000001	383.861	1348.73	43.6961	358.244	1392.98	151.188	320.048	1514.23	101.385	284.233	1498.52	93.7503	374.399	809.4349999999999	81.1687	124.606	1106.85	47.2641	130.769	1022.36	29.3314	180.663	1015.22	33.0478	66.465	906.975	38.1339	70.5936	978.371	121.397	127.387	1066.33	31.965	171.517	1068.86	33.717	76.699	-0	0	0	983.296	1022.36	177.193	-200	0	0	-0	0	200	-0	200	0	
258	3	1283.66	1356.88	212.279	1129.28	1445.34	216.703	1229.61	1383.39	385.164	1210.56	1400.55	42.5536	1289.26	1188.93	211.41	1027.03	1268.95	205.108	1182.35	956.3049999999999	335.719	1204.25	976.456	61.604	990.17	1021.4	217.968	994.522	1020.47	138.181	999.3	1069.43	184.845	1161.72	1068.12	467.872	-0	0	0	-0	0	0	-0	0	0	1217.4	796.761	445.512	1231.43	808.8819999999999	405.372	1171.78	797.568	441.938	1325.08	1091.67	-46.2565	-0	0	0	-0	0	0	-0	0	0	1526.41	924.561	15.5457	1490.65	906.898	-13.2566	1500.82	932.8150000000001	56.1382	1119.19	797.977	33.0429	1118.33	576.607	89.0795	1174.23	663.623	111.88	-0	0	0	-0	0	0	1129.87	478.484	155.11	1049.6	431.3	80.7731	926.458	188.976	78.29300000000001	1009.9	292.051	153.675	-0	0	0	-0	0	0	1128.55	792.2190000000001	368.638	1231.82	599.7670000000001	339.599	1241.64	741.126	356.01	-0	0	0	-0	0	0	1347.32	544.155	285.052	1252.95	407.611	357.408	1310.28	205.866	353.723	1347.95	343.156	287.478	-0	0	0	-0	0	0	1277.85	55.4551	297.213	1565	129.516	328.878	1503.11	90.7103	268.356	1482.95	77.1254	383.079	1378.58	45.5268	359.157	1417.44	154.706	320.285	1540.03	110.298	282.204	1526.44	101.906	372.613	809.708	81.84910000000001	124.675	1106.9	47.23	130.748	1022.45	29.2087	180.681	1015.31	33.0448	66.4859	907.136	38.501	70.6058	978.773	121.471	127.482	1066.43	32.0786	171.479	1068.92	33.6861	76.6748	-0	0	0	992.346	1020.93	178.074	-200	0	0	-0	0	200	-0	200	0	
259	3.008333	1292.7	1355.18	213.298	1138.28	1443.7	217.811	1238.62	1381.52	386.328	1220.06	1398.74	43.7146	1298.31	1187.29	212.402	1035.99	1267.48	206.472	1191.82	954.995	336.314	1213.26	974.6660000000001	62.4025	999.332	1019.65	218.825	1003.62	1018.82	139.139	1008.46	1067.74	185.664	1168.96	1066.85	469.432	-0	0	0	-0	0	0	-0	0	0	1224.14	795.183	446.679	1238.13	807.407	406.579	1178.33	796.21	442.994	1337.48	1091.02	-43.8627	-0	0	0	-0	0	0	-0	0	0	1540.53	927.225	20.1032	1505.42	908.519	-8.64758	1514.91	935.073	60.3058	1126.89	796.955	33.888	1122.5	575.573	89.23820000000001	1179.82	661.877	111.667	-0	0	0	-0	0	0	1132.63	476.603	156.454	1053.11	431.378	80.72410000000001	927.326	189.329	78.16889999999999	1011.49	291.645	154.044	-0	0	0	-0	0	0	1136.77	790.341	369.383	1240.45	598.299	341.167	1250	739.498	356.888	-0	0	0	-0	0	0	1355.61	543.295	286.084	1267.45	405.316	359.734	1332.16	205.607	355.548	1363.75	344.273	288.216	-0	0	0	-0	0	0	1304.27	54.7049	300.006	1589.19	137.758	324.953	1527.54	97.1872	265.928	1510.5	83.0269	381.086	1406.44	47.7785	359.616	1440.08	157.655	319.698	1563.81	118.245	278.898	1552.59	108.714	370.075	809.8869999999999	82.5711	124.705	1107.36	47.1283	130.626	1022.42	29.1459	180.783	1015.3	32.8898	66.5835	907.333	38.8023	70.675	979.208	121.548	127.485	1066.39	31.9616	171.706	1068.91	33.6174	76.6507	-0	0	0	1001.48	1019.24	178.982	-200	0	0	-0	0	200	-0	200	0	
260	3.016667	1301.92	1353.41	214.546	1147.42	1441.88	219.013	1247.99	1379.55	387.668	1229.68	1396.67	44.9654	1307.34	1185.4	213.56	1045.05	1265.81	207.802	1200.8	952.903	337.444	1222.58	973.421	63.3986	1008.44	1017.69	219.812	1012.83	1016.96	140.201	1017.48	1065.83	186.78	1176.49	1065.32	471.269	-0	0	0	-0	0	0	-0	0	0	1231.08	793.42	447.722	1244.9	805.768	407.78	1185.29	794.324	443.826	1349.75	1089.88	-41.4373	-0	0	0	-0	0	0	-0	0	0	1554.33	929.5650000000001	24.5331	1519.9	909.375	-4.02716	1528.63	936.85	64.7684	1134.76	795.274	35.1412	1126.98	574.518	89.7153	1185.73	659.841	111.534	-0	0	0	-0	0	0	1135.56	475.063	156.854	1054.31	429.195	81.679	928.157	189.534	78.36539999999999	1013.15	291.136	154.137	-0	0	0	-0	0	0	1144.39	788.758	370.448	1249.46	596.735	342.525	1258.66	737.807	357.583	-0	0	0	-0	0	0	1364.23	542.135	286.804	1282.06	403.453	361.378	1353.64	205.942	357.735	1379.12	345.037	288.791	-0	0	0	-0	0	0	1328.5	54.1429	303.485	1612.01	144.739	321.078	1549.5	102.687	263.248	1536.11	87.76130000000001	378.793	1432.59	50.0295	360.101	1462.06	160.679	319.688	1585.81	124.435	275.899	1576.94	114.902	366.912	810.239	83.34439999999999	124.621	1107.45	47.0316	130.667	1022.53	29.1244	180.847	1015.49	32.8273	66.642	907.388	39.0974	70.6425	979.562	121.629	127.468	1066.55	31.8568	171.843	1068.96	33.5962	76.60809999999999	-0	0	0	1010.64	1017.32	180.007	-200	0	0	-0	0	200	-0	200	0	
261	3.025	1311.02	1351.53	215.67	1156.47	1440	220.405	1257.23	1377.47	389.136	1239.19	1394.31	46.056	1316.56	1183.56	214.722	1054.06	1264.09	209.235	1209.89	950.751	338.938	1232.09	972.407	64.5016	1017.66	1015.55	221.113	1022.14	1014.79	141.368	1026.49	1063.71	188.148	1183.77	1063.44	472.623	-0	0	0	-0	0	0	-0	0	0	1237.97	791.378	449.157	1251.53	803.6130000000001	408.802	1192.09	792.841	445.694	1361.81	1088.43	-38.918	-0	0	0	-0	0	0	-0	0	0	1567.74	931.389	28.7721	1534.03	909.919	0.736283	1542.23	938.295	69.09059999999999	1142.56	794.133	35.7587	1131.34	573.312	89.9516	1191.96	657.7430000000001	111.495	-0	0	0	-0	0	0	1138.7	473.964	157.158	1056.99	428.596	82.0737	929.175	189.875	78.4739	1014.71	290.734	154.291	-0	0	0	-0	0	0	1152.82	787.144	371.281	1259.16	595.271	343.972	1267.87	736.057	358.29	-0	0	0	-0	0	0	1373.48	541.896	287.715	1296.45	402.129	363.455	1373.59	206.364	359.729	1393.64	345.696	289.423	-0	0	0	-0	0	0	1350.91	53.234	307.282	1632.82	151.1	316.425	1569.3	107.27	260.34	1559.85	91.9588	376.223	1456.57	51.8464	360.492	1482.43	163.217	319.531	1605.83	130.106	272.013	1599.6	120.494	363.148	810.587	83.9847	124.627	1107.51	47.1963	130.901	1022.65	29.1836	181.133	1015.69	32.5601	66.9131	907.599	39.3254	70.9199	979.978	121.661	127.446	1066.53	31.9526	171.956	1069.3	33.5271	76.5814	-0	0	0	1019.9	1015.17	181.241	-200	0	0	-0	0	200	-0	200	0	
